              <svg
                xmlns="http://www.w3.org/2000/svg"
                width="24"
                height="24"
                viewBox="0 0 24 24"
                fill="none"
              >
                <path
                  d="M1 2.50001H2.65424C3.13263 2.50001 3.37183 2.50001 3.56628 2.58675C3.73771 2.66322 3.88415 2.78639 3.98886 2.94217C4.10763 3.11889 4.14862 3.35455 4.23058 3.82586L4.6087 6.00001M4.6087 6.00001L5.49173 11.0774C5.67091 12.1077 5.7605 12.6229 6.02583 12.994C6.25945 13.3207 6.58606 13.5695 6.96311 13.7081C7.39133 13.8654 7.91176 13.815 8.95264 13.7143L18.614 12.7793C19.6298 12.681 20.1378 12.6318 20.5221 12.4033C20.8653 12.1993 21.1395 11.8972 21.3095 11.536C21.5 11.1314 21.5 10.6211 21.5 9.60051V9.60051C21.5 8.51583 21.5 7.97349 21.2922 7.55395C21.1068 7.17972 20.809 6.87291 20.4404 6.67655C20.0272 6.45641 19.4851 6.44036 18.4009 6.40827L4.6087 6.00001Z"
                  stroke="#262F56"
                  stroke-width="1.8"
                  stroke-linecap="round"
                  stroke-linejoin="round"
                />
                <circle
                  cx="8.5"
                  cy="19"
                  r="2"
                  stroke="#262F56"
                  stroke-width="1.8"
                />
                <circle
                  cx="18"
                  cy="19"
                  r="2"
                  stroke="#262F56"
                  stroke-width="1.8"
                />
              </svg>